<svg width="220" height="48" viewBox="0 0 220 48" xmlns="http://www.w3.org/2000/svg" fill="none">
  <g fill="currentColor">
    <path d="M20 27c4.8 0 8.8-3.6 9.4-8.3h2.5l2.1 2.3h4.7v-2.8h-3.3l-1.9-2.1h-4.1C28.4 11.9 24.6 9 20 9c-5.5 0-10 4.3-10 9.6 0 5.3 4.5 9.4 10 9.4Zm0-3.1c-3.7 0-6.8-2.8-6.8-6.3s3.1-6.4 6.8-6.4c3.8 0 6.9 2.9 6.9 6.4s-3.1 6.3-6.9 6.3Z"/>
    <text x="50" y="20" font-family="Georgia, 'Times New Roman', serif" font-size="13" letter-spacing="1.6">RIDGEVIEW</text>
    <text x="50" y="36" font-family="Georgia, 'Times New Roman', serif" font-size="13" letter-spacing="1.6">FAMILY FARM</text>
  </g>
</svg>